<svg xmlns="http://www.w3.org/2000/svg" width="180" height="180" viewBox="0 0 180 180">
  <defs>
    <linearGradient id="gradient" x1="0%" y1="0%" x2="100%" y2="100%">
      <stop offset="0%" stop-color="#2EC4B6" />
      <stop offset="100%" stop-color="#20AFA2" />
    </linearGradient>
    <filter id="shadow" x="-20%" y="-20%" width="140%" height="140%">
      <feGaussianBlur stdDeviation="5" />
    </filter>
  </defs>
  <rect width="180" height="180" rx="45" fill="url(#gradient)" />
  <circle cx="90" cy="90" r="70" fill="#FFFFFF" opacity="0.1" filter="url(#shadow)" />
  
  <!-- پ -->
  <path d="M65 60 Q77 60 85 70 Q93 80 85 90 Q77 100 65 100 L65 120 L55 120 L55 60 L65 60 Z" fill="#FFFFFF" />
  <path d="M65 70 L65 90 Q72 90 76 85 Q80 80 76 75 Q72 70 65 70 Z" fill="url(#gradient)" />
  
  <!-- ر -->
  <path d="M105 70 L105 100 Q112 100 117 95 Q122 90 122 85 L122 70 L132 70 L132 85 Q132 95 125 103 Q118 111 105 111 L105 120 L95 120 L95 70 L105 70 Z" fill="#FFFFFF" />
  
  <!-- نقطه‌ها -->
  <circle cx="65" cy="53" r="5" fill="#FFFFFF" />
  <circle cx="105" cy="63" r="5" fill="#FFFFFF" />
</svg>