<svg xmlns="http://www.w3.org/2000/svg" width="192" height="192" viewBox="0 0 192 192">
  <defs>
    <linearGradient id="gradient" x1="0%" y1="0%" x2="100%" y2="100%">
      <stop offset="0%" stop-color="#2EC4B6" />
      <stop offset="100%" stop-color="#20AFA2" />
    </linearGradient>
    <filter id="shadow" x="-20%" y="-20%" width="140%" height="140%">
      <feGaussianBlur stdDeviation="5" />
    </filter>
  </defs>
  <rect width="192" height="192" rx="48" fill="url(#gradient)" />
  <circle cx="96" cy="96" r="75" fill="#FFFFFF" opacity="0.1" filter="url(#shadow)" />
  
  <!-- پ -->
  <path d="M68 65 Q80 65 88 75 Q96 85 88 95 Q80 105 68 105 L68 125 L58 125 L58 65 L68 65 Z" fill="#FFFFFF" />
  <path d="M68 75 L68 95 Q75 95 79 90 Q83 85 79 80 Q75 75 68 75 Z" fill="url(#gradient)" />
  
  <!-- ر -->
  <path d="M108 75 L108 105 Q115 105 120 100 Q125 95 125 90 L125 75 L135 75 L135 90 Q135 100 128 108 Q121 116 108 116 L108 125 L98 125 L98 75 L108 75 Z" fill="#FFFFFF" />
  
  <!-- نقطه‌ها -->
  <circle cx="68" cy="58" r="5" fill="#FFFFFF" />
  <circle cx="108" cy="68" r="5" fill="#FFFFFF" />
</svg>